<mxfile host="app.diagrams.net" agent="Mozilla/5.0 (Windows NT 10.0; Win64; x64) AppleWebKit/537.36 (KHTML, like Gecko) Chrome/118.0.0.0 Safari/537.36" version="24.9.2">
  <diagram name="第 1 页" id="qYCtebZqlA4NcT2Q-_T3">
    <mxGraphModel dx="2257" dy="797" grid="1" gridSize="10" guides="1" tooltips="1" connect="1" arrows="1" fold="1" page="1" pageScale="1" pageWidth="827" pageHeight="1169" math="0" shadow="0">
      <root>
        <mxCell id="0" />
        <mxCell id="1" parent="0" />
        <mxCell id="x1TOlIJgENK0NpbhIH29-1" value="Mindmap" style="swimlane;startSize=20;horizontal=1;containerType=tree;" vertex="1" parent="1">
          <mxGeometry x="-150" y="220" width="890" height="500" as="geometry" />
        </mxCell>
        <mxCell id="x1TOlIJgENK0NpbhIH29-2" value="" style="edgeStyle=entityRelationEdgeStyle;startArrow=none;endArrow=none;segment=10;curved=1;sourcePerimeterSpacing=0;targetPerimeterSpacing=0;rounded=0;" edge="1" parent="x1TOlIJgENK0NpbhIH29-1" source="x1TOlIJgENK0NpbhIH29-6" target="x1TOlIJgENK0NpbhIH29-7">
          <mxGeometry relative="1" as="geometry" />
        </mxCell>
        <mxCell id="x1TOlIJgENK0NpbhIH29-6" value="IGA_Frequency_Analysis" style="ellipse;whiteSpace=wrap;html=1;align=center;treeFolding=1;treeMoving=1;newEdgeStyle={&quot;edgeStyle&quot;:&quot;entityRelationEdgeStyle&quot;,&quot;startArrow&quot;:&quot;none&quot;,&quot;endArrow&quot;:&quot;none&quot;,&quot;segment&quot;:10,&quot;curved&quot;:1,&quot;sourcePerimeterSpacing&quot;:0,&quot;targetPerimeterSpacing&quot;:0};fillColor=#ffe6cc;strokeColor=#d79b00;" vertex="1" parent="x1TOlIJgENK0NpbhIH29-1">
          <mxGeometry x="30" y="220" width="150" height="40" as="geometry" />
        </mxCell>
        <mxCell id="x1TOlIJgENK0NpbhIH29-7" value="Stiffness matrix" style="whiteSpace=wrap;html=1;rounded=1;arcSize=50;align=center;verticalAlign=middle;strokeWidth=1;autosize=1;spacing=4;treeFolding=1;treeMoving=1;newEdgeStyle={&quot;edgeStyle&quot;:&quot;entityRelationEdgeStyle&quot;,&quot;startArrow&quot;:&quot;none&quot;,&quot;endArrow&quot;:&quot;none&quot;,&quot;segment&quot;:10,&quot;curved&quot;:1,&quot;sourcePerimeterSpacing&quot;:0,&quot;targetPerimeterSpacing&quot;:0};" vertex="1" parent="x1TOlIJgENK0NpbhIH29-1">
          <mxGeometry x="230" y="170" width="135" height="30" as="geometry" />
        </mxCell>
        <mxCell id="x1TOlIJgENK0NpbhIH29-12" value="" style="edgeStyle=entityRelationEdgeStyle;startArrow=none;endArrow=none;segment=10;curved=1;sourcePerimeterSpacing=0;targetPerimeterSpacing=0;rounded=0;" edge="1" target="x1TOlIJgENK0NpbhIH29-13" source="x1TOlIJgENK0NpbhIH29-6" parent="x1TOlIJgENK0NpbhIH29-1">
          <mxGeometry relative="1" as="geometry">
            <mxPoint x="20" y="480" as="sourcePoint" />
          </mxGeometry>
        </mxCell>
        <mxCell id="x1TOlIJgENK0NpbhIH29-13" value="Mass matrix" style="whiteSpace=wrap;html=1;rounded=1;arcSize=50;align=center;verticalAlign=middle;strokeWidth=1;autosize=1;spacing=4;treeFolding=1;treeMoving=1;newEdgeStyle={&quot;edgeStyle&quot;:&quot;entityRelationEdgeStyle&quot;,&quot;startArrow&quot;:&quot;none&quot;,&quot;endArrow&quot;:&quot;none&quot;,&quot;segment&quot;:10,&quot;curved&quot;:1,&quot;sourcePerimeterSpacing&quot;:0,&quot;targetPerimeterSpacing&quot;:0};" vertex="1" parent="x1TOlIJgENK0NpbhIH29-1">
          <mxGeometry x="225" y="285" width="135" height="30" as="geometry" />
        </mxCell>
        <mxCell id="x1TOlIJgENK0NpbhIH29-16" value="RMS5_Structural_Stiffness" style="whiteSpace=wrap;html=1;shape=partialRectangle;top=0;left=0;bottom=1;right=0;points=[[0,1],[1,1]];fillColor=none;align=center;verticalAlign=bottom;routingCenterY=0.5;snapToPoint=1;recursiveResize=0;autosize=1;treeFolding=1;treeMoving=1;newEdgeStyle={&quot;edgeStyle&quot;:&quot;entityRelationEdgeStyle&quot;,&quot;startArrow&quot;:&quot;none&quot;,&quot;endArrow&quot;:&quot;none&quot;,&quot;segment&quot;:10,&quot;curved&quot;:1,&quot;sourcePerimeterSpacing&quot;:0,&quot;targetPerimeterSpacing&quot;:0};" vertex="1" parent="x1TOlIJgENK0NpbhIH29-1">
          <mxGeometry x="410" y="170" width="180" height="30" as="geometry" />
        </mxCell>
        <mxCell id="x1TOlIJgENK0NpbhIH29-17" value="" style="edgeStyle=entityRelationEdgeStyle;startArrow=none;endArrow=none;segment=10;curved=1;sourcePerimeterSpacing=0;targetPerimeterSpacing=0;rounded=0;" edge="1" target="x1TOlIJgENK0NpbhIH29-16" parent="x1TOlIJgENK0NpbhIH29-1" source="x1TOlIJgENK0NpbhIH29-7">
          <mxGeometry x="595" y="-45" width="80" height="20" as="geometry" />
        </mxCell>
        <mxCell id="x1TOlIJgENK0NpbhIH29-18" value="" style="edgeStyle=entityRelationEdgeStyle;startArrow=none;endArrow=none;segment=10;curved=1;sourcePerimeterSpacing=0;targetPerimeterSpacing=0;rounded=0;" edge="1" target="x1TOlIJgENK0NpbhIH29-19" source="x1TOlIJgENK0NpbhIH29-16" parent="x1TOlIJgENK0NpbhIH29-1">
          <mxGeometry x="595" y="-45" width="80" height="20" as="geometry">
            <mxPoint x="215" y="405" as="sourcePoint" />
          </mxGeometry>
        </mxCell>
        <mxCell id="x1TOlIJgENK0NpbhIH29-19" value="RMS5_Element_Structural_Stiffness" style="whiteSpace=wrap;html=1;shape=partialRectangle;top=0;left=0;bottom=1;right=0;points=[[0,1],[1,1]];fillColor=none;align=center;verticalAlign=bottom;routingCenterY=0.5;snapToPoint=1;recursiveResize=0;autosize=1;treeFolding=1;treeMoving=1;newEdgeStyle={&quot;edgeStyle&quot;:&quot;entityRelationEdgeStyle&quot;,&quot;startArrow&quot;:&quot;none&quot;,&quot;endArrow&quot;:&quot;none&quot;,&quot;segment&quot;:10,&quot;curved&quot;:1,&quot;sourcePerimeterSpacing&quot;:0,&quot;targetPerimeterSpacing&quot;:0};" vertex="1" parent="x1TOlIJgENK0NpbhIH29-1">
          <mxGeometry x="610" y="170" width="240" height="30" as="geometry" />
        </mxCell>
        <mxCell id="x1TOlIJgENK0NpbhIH29-20" value="RMS5_Consistent_Mass" style="whiteSpace=wrap;html=1;shape=partialRectangle;top=0;left=0;bottom=1;right=0;points=[[0,1],[1,1]];fillColor=none;align=center;verticalAlign=bottom;routingCenterY=0.5;snapToPoint=1;recursiveResize=0;autosize=1;treeFolding=1;treeMoving=1;newEdgeStyle={&quot;edgeStyle&quot;:&quot;entityRelationEdgeStyle&quot;,&quot;startArrow&quot;:&quot;none&quot;,&quot;endArrow&quot;:&quot;none&quot;,&quot;segment&quot;:10,&quot;curved&quot;:1,&quot;sourcePerimeterSpacing&quot;:0,&quot;targetPerimeterSpacing&quot;:0};" vertex="1" parent="x1TOlIJgENK0NpbhIH29-1">
          <mxGeometry x="415" y="280" width="170" height="30" as="geometry" />
        </mxCell>
        <mxCell id="x1TOlIJgENK0NpbhIH29-21" value="" style="edgeStyle=entityRelationEdgeStyle;startArrow=none;endArrow=none;segment=10;curved=1;sourcePerimeterSpacing=0;targetPerimeterSpacing=0;rounded=0;" edge="1" target="x1TOlIJgENK0NpbhIH29-20" parent="x1TOlIJgENK0NpbhIH29-1" source="x1TOlIJgENK0NpbhIH29-13">
          <mxGeometry x="590" y="70" width="80" height="20" as="geometry" />
        </mxCell>
        <mxCell id="x1TOlIJgENK0NpbhIH29-22" value="" style="edgeStyle=entityRelationEdgeStyle;startArrow=none;endArrow=none;segment=10;curved=1;sourcePerimeterSpacing=0;targetPerimeterSpacing=0;rounded=0;" edge="1" target="x1TOlIJgENK0NpbhIH29-23" source="x1TOlIJgENK0NpbhIH29-20" parent="x1TOlIJgENK0NpbhIH29-1">
          <mxGeometry x="590" y="70" width="80" height="20" as="geometry">
            <mxPoint x="210" y="520" as="sourcePoint" />
          </mxGeometry>
        </mxCell>
        <mxCell id="x1TOlIJgENK0NpbhIH29-23" value="RMS5_Element_Consistent_Mass" style="whiteSpace=wrap;html=1;shape=partialRectangle;top=0;left=0;bottom=1;right=0;points=[[0,1],[1,1]];fillColor=none;align=center;verticalAlign=bottom;routingCenterY=0.5;snapToPoint=1;recursiveResize=0;autosize=1;treeFolding=1;treeMoving=1;newEdgeStyle={&quot;edgeStyle&quot;:&quot;entityRelationEdgeStyle&quot;,&quot;startArrow&quot;:&quot;none&quot;,&quot;endArrow&quot;:&quot;none&quot;,&quot;segment&quot;:10,&quot;curved&quot;:1,&quot;sourcePerimeterSpacing&quot;:0,&quot;targetPerimeterSpacing&quot;:0};" vertex="1" parent="x1TOlIJgENK0NpbhIH29-1">
          <mxGeometry x="610" y="280" width="220" height="30" as="geometry" />
        </mxCell>
      </root>
    </mxGraphModel>
  </diagram>
</mxfile>
